<svg width="501" height="602" viewBox="0 0 501 602" fill="none" xmlns="http://www.w3.org/2000/svg">
<g clip-path="url(#clip0_248_117)">
<rect width="501" height="602" fill="#FDB137"/>
<path d="M289.82 586.961L148.761 587.543C111.338 573.53 80.6774 524.861 80.4834 451.892C80.4459 440.899 81.1122 429.92 82.4762 419.06L196.093 387.252L283.741 362.715C290.2 369.923 296.218 377.72 301.745 386.043L217.933 441.191L178.396 467.209L222.824 448.108L315.038 408.465C320.789 419.421 325.913 430.869 330.372 442.723L302.549 478.555L334.023 452.878C334.157 453.272 334.291 453.666 334.425 454.06C354.372 513.072 329.623 586.796 289.82 586.961Z" fill="#F2F2F2"/>
<path d="M266.638 346.2C245.307 353.834 219.081 363.48 192.116 373.506C153.13 388.006 112.601 403.308 83.0947 414.493L83.114 414.362C84.2046 406.513 86.7688 399.097 90.5972 392.717C112.455 357.304 140.286 332.565 171.262 323.377H171.265C179.975 320.788 188.896 319.462 197.851 319.425C222.495 319.323 245.839 328.955 266.638 346.2Z" fill="#F2F2F2"/>
<path d="M175.222 602C228.243 602 271.225 594.275 271.225 584.745C271.225 575.216 228.243 567.49 175.222 567.49C122.202 567.49 79.2197 575.216 79.2197 584.745C79.2197 594.275 122.202 602 175.222 602Z" fill="#3F3D56"/>
<path d="M141.068 423.701V450.541L156.453 452.842L165.684 438.271L158.299 419.866L141.068 423.701Z" fill="#FBBEBE"/>
<path d="M199.531 534.131L207.531 560.972L222.301 554.837L211.224 532.597L199.531 534.131Z" fill="#FBBEBE"/>
<path d="M181.069 305.601C181.069 305.601 101.067 295.632 103.528 323.24C105.99 350.847 141.068 429.836 141.068 429.836L164.453 424.468C164.453 424.468 147.837 392.259 149.068 381.522C150.299 370.786 145.376 356.215 145.376 356.215L157.068 358.516L163.838 371.553L177.992 462.045L199.531 543.334L215.531 537.966C215.531 537.966 206.916 504.223 209.377 493.487C211.839 482.75 197.685 441.339 197.685 441.339L207.531 369.252C207.531 369.252 226.609 362.35 221.07 338.577C215.531 314.804 181.069 305.601 181.069 305.601Z" fill="#2F2E41"/>
<path d="M147.837 442.106C147.837 442.106 138.606 432.903 139.222 436.738C139.569 439.533 139.569 442.378 139.222 445.173L130.606 468.946C130.606 468.946 109.682 492.72 128.76 493.487C147.837 494.253 157.684 469.713 157.684 469.713C157.684 469.713 184.146 445.173 181.069 441.339C177.992 437.504 161.843 428.698 161.843 428.698C161.843 428.698 156.453 447.474 147.837 442.106Z" fill="#2F2E41"/>
<path d="M206.916 548.702C206.916 548.702 198.3 538.733 197.685 543.334C197.069 547.935 196.454 554.07 196.454 554.07L183.53 569.408C183.53 569.408 165.068 591.647 181.069 592.414C185.693 592.674 190.305 591.638 194.566 589.382C198.826 587.126 202.626 583.707 205.685 579.377C205.685 579.377 229.07 573.242 227.839 568.641C226.608 564.04 220.437 546.239 217.676 545.553C214.916 544.868 214.3 554.837 206.916 548.702Z" fill="#2F2E41"/>
<path d="M177.376 195.171C187.912 195.171 196.454 184.527 196.454 171.398C196.454 158.268 187.912 147.624 177.376 147.624C166.84 147.624 158.299 158.268 158.299 171.398C158.299 184.527 166.84 195.171 177.376 195.171Z" fill="#FBBEBE"/>
<path d="M168.761 187.502C168.761 187.502 176.761 214.343 176.146 216.643C175.53 218.944 201.377 197.471 201.377 197.471C201.377 197.471 190.3 194.404 190.3 182.134L168.761 187.502Z" fill="#FBBEBE"/>
<path d="M238.917 226.613C238.917 226.613 249.994 240.417 251.84 245.018C253.686 249.619 295.534 307.902 295.534 307.902C295.534 307.902 323.227 348.547 312.15 349.313C301.072 350.08 286.918 317.105 286.918 317.105C286.918 317.105 247.532 281.061 245.686 272.626L222.916 243.484L238.917 226.613Z" fill="#FBBEBE"/>
<path d="M181.069 210.508H174.299L165.068 228.913C165.068 228.913 155.837 238.883 162.607 259.588C169.376 280.294 174.915 306.368 174.915 306.368C174.915 306.368 194.608 309.436 198.3 317.104C201.993 324.773 222.916 349.313 222.916 349.313C222.916 349.313 226.609 333.209 225.378 309.436C224.147 285.662 225.378 249.619 225.378 249.619L224.147 202.073C224.147 202.073 200.378 195.207 198.724 196.339C197.069 197.471 181.069 210.508 181.069 210.508Z" fill="white"/>
<path d="M214.916 204.373L224.147 202.073C224.147 202.073 233.993 209.741 243.225 231.981C243.225 231.981 223.532 248.085 221.685 247.318C219.839 246.552 214.916 204.373 214.916 204.373Z" fill="white"/>
<path d="M158.299 256.521C158.299 256.521 144.145 284.896 148.453 295.632C152.76 306.368 158.299 305.601 158.299 305.601C158.299 305.601 168.761 303.301 168.761 292.564C168.761 281.828 173.069 281.061 173.069 281.061C173.069 281.061 200.146 253.453 189.685 253.453C179.223 253.453 165.068 272.625 165.068 272.625L164.453 254.987L158.299 256.521Z" fill="#FBBEBE"/>
<path d="M167.53 228.146C167.53 228.146 158.299 231.214 156.453 243.484C154.607 255.754 155.222 261.889 155.222 261.889L167.53 260.355V228.146Z" fill="white"/>
<path opacity="0.1" d="M150.299 289.497C150.299 289.497 160.145 273.392 161.376 275.693L150.299 289.497Z" fill="black"/>
<path d="M187.068 142.617C187.068 142.617 176.951 130.02 167.211 138.478C157.471 146.936 152.935 154.991 154.022 160.462C155.109 165.932 158.146 173.492 158.146 173.492C158.146 173.492 156.119 162.151 164.308 161.04C172.497 159.93 183.692 152.793 183.692 152.793L191.789 172.952C191.789 172.952 192.774 168.187 195.809 169.446C198.843 170.704 195.948 143.842 187.068 142.617Z" fill="#2F2E41"/>
<path d="M388.507 168.457C388.507 168.457 384.721 183.127 378.813 204.206C376.902 211.053 374.762 218.569 372.455 226.48C369.242 237.497 365.702 249.281 361.995 261.066C359.714 268.319 357.372 275.561 355.003 282.638C342.271 320.57 328.711 353.433 319.826 353.894C299.865 354.926 257.107 188.493 252.44 170.103C252.167 169.027 252.026 168.457 252.026 168.457H388.507Z" fill="#3F3D56"/>
<path opacity="0.1" d="M378.813 204.206C376.902 211.053 374.762 218.569 372.455 226.48L319.58 168.457H346.233L378.813 204.206Z" fill="black"/>
<path opacity="0.1" d="M361.995 261.066C359.714 268.319 357.372 275.561 355.003 282.638L252.44 170.103C252.167 169.027 252.026 168.457 252.026 168.457H277.596L361.995 261.066Z" fill="black"/>
<path d="M322.633 21.0518C316.376 27.2278 306.483 24.8925 300.47 31.4335C296.357 35.9077 295.26 43.5587 296.382 50.2169C297.504 56.8752 300.487 62.7833 303.487 68.4675C305.558 72.3904 307.706 76.3443 310.615 79.3279C314.683 83.4993 319.904 85.4411 325.021 87.0008C336.165 90.3962 347.545 92.4518 359.004 93.1393C364.114 93.4455 369.902 93.1393 373.345 88.4238C375.35 85.678 376.156 81.9149 376.743 78.2754C377.662 72.5823 378.173 66.453 376.274 61.15C374.713 56.7912 371.708 53.524 368.667 50.6234C359.125 41.5252 347.887 33.9928 342.064 20.8973C339.749 15.6921 338.322 9.66026 334.813 5.62163C330.24 0.357608 320.065 -1.79485 314.68 1.7216C315.512 4.08494 326.384 17.3494 322.633 21.0518Z" fill="#6C63FF"/>
<path d="M270.057 82.4349C268.202 90.4511 266.493 98.9326 268.055 107.045C270.114 117.741 277.64 125.752 285.896 129.646C294.151 133.539 303.154 133.994 311.975 134.404L358.159 136.554C363.963 136.824 369.879 137.12 375.333 139.607C379.829 141.656 385.173 145.03 388.921 141.319C390.621 139.636 391.384 136.911 391.988 134.312C393.951 125.855 395.049 116.567 392.409 108.401C389.384 99.0431 381.925 92.894 374.18 89.9548C366.435 87.0155 358.233 86.7293 350.186 85.6193C342.024 84.4928 333.953 82.5019 326.061 79.6682C319.464 77.2988 312.779 74.1723 307.9 68.1537C305.26 64.8981 303.261 60.9277 300.773 57.4917C286.52 37.8086 273.562 67.2869 270.057 82.4349Z" fill="#6C63FF"/>
<path d="M259.908 119.262C255.416 121.77 251.52 125.68 248.597 130.615C245.674 135.549 243.822 141.341 243.223 147.429C242.623 153.517 243.295 159.695 245.174 165.364C247.052 171.033 250.074 176.002 253.946 179.788C260.978 186.666 270.181 189.058 279.097 189.858C287.804 190.64 296.548 190.102 305.266 189.564L382.404 184.803C386.926 184.524 392.043 183.875 394.803 179.404C396.863 176.066 396.985 171.463 396.493 167.298C394.723 152.313 385.644 139.047 374.049 134.506C369.676 132.793 365.072 132.251 360.508 131.719L327.441 127.864C322.988 127.344 318.509 126.819 314.193 125.358C301.116 120.928 289.432 107.996 275.968 109.911C266.835 111.21 259.314 119.178 252.679 127.107" fill="#6C63FF"/>
<path opacity="0.1" d="M303.096 54.3417C303.096 54.3417 313.889 78.6237 369.249 88.4279Z" fill="black"/>
<path opacity="0.1" d="M272.474 117.94C272.474 117.94 292.53 143.22 375.299 143.22Z" fill="black"/>
<path d="M318.946 42.2719C321.864 42.2719 324.229 41.2893 324.229 40.0773C324.229 38.8653 321.864 37.8828 318.946 37.8828C316.028 37.8828 313.663 38.8653 313.663 40.0773C313.663 41.2893 316.028 42.2719 318.946 42.2719Z" fill="#3F3D56"/>
<path d="M336.556 56.5363C339.474 56.5363 341.84 55.5537 341.84 54.3417C341.84 53.1297 339.474 52.1472 336.556 52.1472C333.639 52.1472 331.273 53.1297 331.273 54.3417C331.273 55.5537 333.639 56.5363 336.556 56.5363Z" fill="#3F3D56"/>
<path d="M356.808 71.8978C359.726 71.8978 362.091 70.9153 362.091 69.7033C362.091 68.4913 359.726 67.5088 356.808 67.5088C353.891 67.5088 351.525 68.4913 351.525 69.7033C351.525 70.9153 353.891 71.8978 356.808 71.8978Z" fill="#3F3D56"/>
<path d="M286.366 78.4815C289.284 78.4815 291.649 77.4989 291.649 76.2869C291.649 75.0749 289.284 74.0924 286.366 74.0924C283.448 74.0924 281.083 75.0749 281.083 76.2869C281.083 77.4989 283.448 78.4815 286.366 78.4815Z" fill="#3F3D56"/>
<path d="M331.273 99.3295C334.191 99.3295 336.556 98.347 336.556 97.135C336.556 95.923 334.191 94.9404 331.273 94.9404C328.355 94.9404 325.99 95.923 325.99 97.135C325.99 98.347 328.355 99.3295 331.273 99.3295Z" fill="#3F3D56"/>
<path d="M267.875 142.123C270.793 142.123 273.158 141.14 273.158 139.928C273.158 138.716 270.793 137.734 267.875 137.734C264.957 137.734 262.592 138.716 262.592 139.928C262.592 141.14 264.957 142.123 267.875 142.123Z" fill="#3F3D56"/>
<path d="M301.335 101.524C304.253 101.524 306.618 100.541 306.618 99.3294C306.618 98.1174 304.253 97.1349 301.335 97.1349C298.417 97.1349 296.052 98.1174 296.052 99.3294C296.052 100.541 298.417 101.524 301.335 101.524Z" fill="#3F3D56"/>
<path d="M281.083 158.582C284.001 158.582 286.366 157.599 286.366 156.387C286.366 155.175 284.001 154.193 281.083 154.193C278.165 154.193 275.8 155.175 275.8 156.387C275.8 157.599 278.165 158.582 281.083 158.582Z" fill="#3F3D56"/>
<path d="M315.424 148.706C318.341 148.706 320.707 147.724 320.707 146.512C320.707 145.3 318.341 144.317 315.424 144.317C312.506 144.317 310.14 145.3 310.14 146.512C310.14 147.724 312.506 148.706 315.424 148.706Z" fill="#3F3D56"/>
<path d="M336.116 201.375C339.277 201.375 341.839 194.743 341.839 186.562C341.839 178.381 339.277 171.749 336.116 171.749C332.955 171.749 330.393 178.381 330.393 186.562C330.393 194.743 332.955 201.375 336.116 201.375Z" fill="#6C63FF"/>
<path d="M343.16 206.861C346.321 206.861 348.884 200.229 348.884 192.048C348.884 183.867 346.321 177.235 343.16 177.235C339.999 177.235 337.437 183.867 337.437 192.048C337.437 200.229 339.999 206.861 343.16 206.861Z" fill="#6C63FF"/>
<path d="M331.417 334.882C331.464 334.589 332.651 327.584 338.86 317.364C344.557 307.988 355.762 294.035 376.794 280.815C416.638 255.77 425.554 208.718 425.639 208.245L426.704 208.544C426.683 208.664 424.453 220.711 417.275 235.702C407.75 255.567 393.878 271.637 377.286 282.029C337.509 307.031 332.532 334.874 332.486 335.152L331.417 334.882Z" fill="#3F3D56"/>
<path d="M427.677 203.211C431.594 203.211 434.77 199.254 434.77 194.373C434.77 189.492 431.594 185.535 427.677 185.535C423.76 185.535 420.585 189.492 420.585 194.373C420.585 199.254 423.76 203.211 427.677 203.211Z" fill="#F9A826"/>
<path d="M426.274 246.092C430.191 246.092 433.366 242.135 433.366 237.254C433.366 232.373 430.191 228.416 426.274 228.416C422.357 228.416 419.181 232.373 419.181 237.254C419.181 242.135 422.357 246.092 426.274 246.092Z" fill="#3F3D56"/>
<path d="M403.202 249.101C407.119 249.101 410.294 245.144 410.294 240.263C410.294 235.382 407.119 231.425 403.202 231.425C399.285 231.425 396.11 235.382 396.11 240.263C396.11 245.144 399.285 249.101 403.202 249.101Z" fill="#F9A826"/>
<path d="M406.788 278.277C410.705 278.277 413.881 274.321 413.881 269.439C413.881 264.558 410.705 260.601 406.788 260.601C402.871 260.601 399.696 264.558 399.696 269.439C399.696 274.321 402.871 278.277 406.788 278.277Z" fill="#F9A826"/>
<path d="M373.607 278.876C377.524 278.876 380.699 274.919 380.699 270.038C380.699 265.157 377.524 261.2 373.607 261.2C369.69 261.2 366.514 265.157 366.514 270.038C366.514 274.919 369.69 278.876 373.607 278.876Z" fill="#3F3D56"/>
<path d="M334.381 338.751C334.381 338.751 341.051 316.79 365.555 322.853L334.381 338.751Z" fill="#3F3D56"/>
<path d="M328.2 331.071C328.2 331.071 338.457 311.372 320.03 290.35L328.2 331.071Z" fill="#3F3D56"/>
</g>
<defs>
<clipPath id="clip0_248_117">
<rect width="501" height="602" fill="white"/>
</clipPath>
</defs>
</svg>
