<svg xmlns="http://www.w3.org/2000/svg" width="256" height="246" viewBox="0 0 256 246" fill="none">
<g clip-path="url(#clip0_245_79)">
<path d="M255.946 0H0V245.155H255.946V0Z" fill="#FDB137"/>
<path d="M61.0871 233.931H66.4291L68.9701 213.25H61.0861L61.0871 233.931Z" fill="#FFB6B6"/>
<path d="M79.39 233.81C79.556 234.091 79.6439 234.998 79.6439 235.325C79.6439 236.33 78.8319 237.145 77.8309 237.145H61.287C60.604 237.145 60.05 236.589 60.05 235.904V235.212C60.05 235.212 59.2319 233.135 60.9169 230.574C60.9169 230.574 63.011 232.579 66.14 229.438L67.063 227.761L73.742 232.664L77.4449 233.121C78.2549 233.221 78.973 233.106 79.39 233.81Z" fill="#2F2E41"/>
<path d="M90.5079 233.931H95.8499L98.3909 213.25H90.507L90.5079 233.931Z" fill="#FFB6B6"/>
<path d="M108.81 233.81C108.977 234.091 109.064 234.998 109.064 235.325C109.064 236.33 108.253 237.145 107.251 237.145H90.708C90.025 237.145 89.471 236.589 89.471 235.904V235.212C89.471 235.212 88.652 233.135 90.337 230.574C90.337 230.574 92.432 232.579 95.561 229.438L96.483 227.761L103.163 232.664L106.865 233.121C107.675 233.221 108.394 233.106 108.81 233.81Z" fill="#2F2E41"/>
<path d="M88.3621 69.302C88.3621 69.302 94.5151 66.49 98.4441 69.302C102.373 72.114 105.874 97.425 101.673 101.643C97.4701 105.862 90.4641 96.37 90.4641 96.37L88.3621 69.302Z" fill="#FFB6B6"/>
<path d="M65.109 69.636C65.109 69.636 58.956 66.824 55.028 69.636C51.099 72.45 47.597 97.76 51.8 101.979C56.003 106.197 63.008 96.706 63.008 96.706L65.109 69.636Z" fill="#FFB6B6"/>
<path d="M65.285 100.748C65.285 100.748 63.183 110.239 60.731 114.458L78.5939 125.004L92.603 115.865C92.603 115.865 85.9489 104.966 86.9989 101.802L65.285 100.748Z" fill="#FFB6B6"/>
<path d="M186.985 232.877H180.124L176.861 206.318L186.986 206.319L186.985 232.877Z" fill="#FFB6B6"/>
<path d="M163.481 232.721C163.267 233.082 163.154 234.248 163.154 234.668C163.154 235.958 164.197 237.005 165.483 237.005H186.728C187.605 237.005 188.316 236.291 188.316 235.41V234.523C188.316 234.523 189.367 231.854 187.204 228.566C187.204 228.566 184.514 231.141 180.496 227.107L179.311 224.953L170.733 231.249L165.978 231.837C164.938 231.965 164.016 231.817 163.481 232.721Z" fill="#2F2E41"/>
<path d="M208.19 232.877H201.33L198.067 206.318L208.192 206.319L208.19 232.877Z" fill="#FFB6B6"/>
<path d="M184.686 232.721C184.473 233.082 184.36 234.248 184.36 234.668C184.36 235.958 185.402 237.005 186.688 237.005H207.934C208.811 237.005 209.522 236.291 209.522 235.41V234.523C209.522 234.523 210.573 231.854 208.409 228.566C208.409 228.566 205.72 231.141 201.701 227.107L200.516 224.953L191.939 231.249L187.184 231.837C186.144 231.965 185.221 231.817 184.686 232.721Z" fill="#2F2E41"/>
<path d="M172.713 79.667C172.713 79.667 171.719 86.086 172.87 90.228L155.973 120.301L162.546 125.11L184.496 97.391L187.538 83.695L172.713 79.667Z" fill="#FFB6B6"/>
<path d="M161.537 129.484C163.866 125.34 163.686 120.81 161.136 119.367C158.585 117.923 154.63 120.113 152.302 124.257C149.974 128.401 150.153 132.931 152.704 134.374C155.254 135.818 159.209 133.628 161.537 129.484Z" fill="#FFB6B6"/>
<path d="M179.304 110.264C179.304 110.264 171.226 115.986 174.004 124.526L171.731 153.338L176.781 212.63H187.655L189.403 170.062L196.471 143.204L197.387 212.63L210.861 212.377C210.861 212.377 211.618 177.663 210.608 175.636C209.598 173.609 210.608 175.235 210.608 175.235L218.939 134.583L217.676 106.716L179.304 110.264Z" fill="#2F2E41"/>
<path d="M199.249 39.572L184.605 45.145L186.12 49.2L174.004 58.321L182.082 86.699L177.537 112.038L190.665 111.531L218.939 108.998L215.909 78.085L216.414 48.186L205.307 44.132L199.249 39.572Z" fill="white"/>
<path d="M177.79 57.561L174.004 58.321C174.004 58.321 172.236 59.589 172.236 64.149C172.236 68.71 172.236 71.75 172.741 74.285C172.741 74.285 169.711 82.393 170.721 84.419C171.731 86.446 184.353 86.446 184.353 86.446L177.79 57.561Z" fill="white"/>
<path d="M198.655 27.812C198.655 34.192 193.503 39.364 187.147 39.364C180.79 39.364 175.637 34.192 175.637 27.812C175.637 21.433 180.79 16.26 187.147 16.26C193.503 16.26 198.655 21.433 198.655 27.812Z" fill="#FFB6B6"/>
<path d="M194.339 35.8559C194.339 35.8559 196.377 27.9929 194.206 29.3789L190.833 29.0579L192.963 23.3429C192.963 23.3429 189.151 20.4749 187.631 22.1509C186.112 23.8279 186.476 24.7739 185.096 22.5929C183.714 20.4119 180.828 20.4529 178.183 22.0219C175.54 23.5919 173.475 23.8499 173.978 20.9379C174.48 18.0269 174.198 13.0789 175.767 13.6409C177.337 14.2009 176.907 14.5169 177.752 12.4839C178.599 10.4499 178.705 9.32393 180.665 10.1939C182.624 11.0629 187.547 6.97894 189.581 9.44994C191.615 11.9199 193.391 12.3179 195.17 12.7149C196.945 13.1109 204.085 11.9719 203.487 23.0689C203.487 23.0689 208.253 32.6299 199.669 37.0479C199.669 37.0479 197.34 34.7399 195.714 37.5439L194.339 35.8559Z" fill="#2F2E41"/>
<path d="M83.847 60.673L72.639 61.024L66.685 68.407L60.03 69.813C60.03 69.813 57.929 89.498 61.082 96.529C64.233 103.561 62.833 105.67 62.833 105.67L88.05 105.317C88.05 105.317 87.349 100.543 91.553 96.427L93.661 88.598C94.787 84.411 94.403 79.962 92.577 76.032L88.05 66.297L84.197 64.891L83.847 60.673Z" fill="white"/>
<path d="M62.833 109.888L61.256 112.525C61.256 112.525 56.353 119.204 55.653 138.188C54.952 157.171 60.731 218.597 60.731 218.597H68.728L77.374 135.489L88.926 218.69L99.257 218.865L98.382 133.969C98.382 133.969 96.282 114.633 90.677 110.416C90.677 110.416 72.639 126.762 62.833 109.888Z" fill="#2F2E41"/>
<path d="M48.245 68.242C48.245 71.891 48.026 74.607 44.056 74.85C40.326 75.078 39.866 71.891 39.866 68.242C39.866 64.592 39.953 61.663 44.056 61.634C48.727 61.6 48.245 64.592 48.245 68.242Z" fill="#2F2E41"/>
<path d="M71.588 68.242C71.588 71.891 72.544 74.607 67.398 74.85C63.44 75.037 63.209 71.891 63.209 68.242C63.209 64.592 63.79 62.043 67.398 61.634C70.792 61.248 71.588 64.592 71.588 68.242Z" fill="#2F2E41"/>
<path d="M67.9971 65.238H44.6541V70.645H67.9971V65.238Z" fill="#2F2E41"/>
<path d="M88.524 67.187C88.524 70.837 88.305 73.552 84.334 73.795C80.605 74.024 80.144 70.837 80.144 67.187C80.144 63.538 80.231 60.609 84.334 60.579C89.005 60.545 88.524 63.538 88.524 67.187Z" fill="#2F2E41"/>
<path d="M111.866 67.187C111.866 70.837 112.822 73.552 107.677 73.795C103.718 73.982 103.487 70.837 103.487 67.187C103.487 63.538 104.068 60.989 107.677 60.579C111.071 60.194 111.866 63.538 111.866 67.187Z" fill="#2F2E41"/>
<path d="M108.275 64.184H84.932V69.591H108.275V64.184Z" fill="#2F2E41"/>
<path d="M149.466 124.84C149.466 128.489 149.247 131.205 145.277 131.448C141.547 131.676 141.087 128.489 141.087 124.84C141.087 121.19 141.174 118.261 145.277 118.232C149.948 118.198 149.466 121.19 149.466 124.84Z" fill="#2F2E41"/>
<path d="M172.809 124.84C172.809 128.489 173.765 131.205 168.619 131.448C164.661 131.635 164.43 128.489 164.43 124.84C164.43 121.19 165.011 118.641 168.619 118.232C172.013 117.846 172.809 121.19 172.809 124.84Z" fill="#2F2E41"/>
<path d="M169.218 121.836H145.875V127.243H169.218V121.836Z" fill="#2F2E41"/>
<path d="M96.784 75.492C99.2975 75.492 101.335 72.1812 101.335 68.097C101.335 64.0129 99.2975 60.702 96.784 60.702C94.2706 60.702 92.233 64.0129 92.233 68.097C92.233 72.1812 94.2706 75.492 96.784 75.492Z" fill="#FFB6B6"/>
<path d="M75.2656 56.4537C82.1326 56.4537 87.6994 50.8664 87.6994 43.9741C87.6994 37.0817 82.1326 31.4944 75.2656 31.4944C68.3987 31.4944 62.8319 37.0817 62.8319 43.9741C62.8319 50.8664 68.3987 56.4537 75.2656 56.4537Z" fill="#FFB6B6"/>
<path d="M72.769 47.896L75.646 43.3L76.942 37.051C76.942 37.051 90.047 40.26 86.531 33.843C83.015 27.427 74.065 25.823 67.993 30.635L65.374 33.201C65.374 33.201 71.189 27.747 67.672 25.823C64.156 23.897 64.796 22.615 62.877 24.219C60.96 25.823 61.919 27.106 59.682 26.143C57.444 25.181 52.649 23.897 53.289 25.502C53.928 27.106 49.105 31.277 50.877 33.201C52.649 35.126 51.051 38.977 54.247 38.014C57.444 37.051 55.845 41.864 58.723 39.938C58.723 39.938 56.36 42.959 58.28 45.205C60.197 47.45 63.152 48.324 62.833 51.532C62.513 54.74 70.188 55.4 70.188 55.4L69.591 46.035C69.591 46.035 71.49 44.471 72.769 47.896Z" fill="#2F2E41"/>
<path d="M199.357 69.429C199.357 69.429 197.524 75.659 198.117 79.918L177.395 107.476L183.274 113.117L208.694 88.565L213.519 75.396L199.357 69.429Z" fill="#FFB6B6"/>
<path d="M181.696 117.318C184.552 113.52 184.972 109.007 182.635 107.237C180.299 105.467 176.089 107.11 173.234 110.908C170.378 114.705 169.958 119.219 172.295 120.989C174.631 122.759 178.841 121.115 181.696 117.318Z" fill="#FFB6B6"/>
<path d="M214.375 46.521C214.375 46.521 220.831 48.872 220.01 53.328C219.188 57.786 218.876 60.724 218.876 60.724C218.876 60.724 219.576 63.159 218.663 64.373C217.751 65.586 213.066 79.813 213.066 79.813L196.216 74.034C196.216 74.034 206.094 46.597 214.375 46.521Z" fill="white"/>
<path d="M61.2391 68.431C61.2391 72.516 59.2021 75.826 56.6871 75.826C54.1751 75.826 52.1381 72.516 52.1381 68.431C52.1381 64.348 54.1751 61.037 56.6871 61.037C59.2021 61.037 61.2391 64.348 61.2391 68.431Z" fill="#FFB6B6"/>
</g>
<defs fill="#000000">
<clipPath id="clip0_245_79" fill="#000000">
<rect width="255.946" height="245.155" fill="white"/>
</clipPath>
</defs>
</svg>